# xmcd CD database file
#
# Track frame offsets:
#	150
#	2977
#	25847
#	48800
#	73250
#	94330
#	116372
#	140597
#	167007
#	191302
#	212072
#
# Disc length: 3028 seconds
#
# Revision: 0
# Processed by: cddbd v1.5.1PL2 Copyright (c) Steve Scherf et al.
# Submitted via: CDex 1.51
#
DISCID=940bd20b
DTITLE=後藤次利 - do not disturb
DYEAR=2003
DGENRE=JPop
TTITLE0=anyday prologue
TTITLE1=do not disturb
TTITLE2=you can!?
TTITLE3=humanize
TTITLE4=turn in
TTITLE5=file
TTITLE6=ever still
TTITLE7=s.p.s.
TTITLE8=the prophet
TTITLE9=there
TTITLE10=anyday epilogue
EXTD=YEAR: 2003
EXTT0=
EXTT1=
EXTT2=
EXTT3=
EXTT4=
EXTT5=
EXTT6=
EXTT7=
EXTT8=
EXTT9=
EXTT10=
PLAYORDER=
